<?xml version="1.0" encoding="UTF-8" standalone="no"?>
<svg
   xmlns:dc="http://purl.org/dc/elements/1.1/"
   xmlns:cc="http://creativecommons.org/ns#"
   xmlns:rdf="http://www.w3.org/1999/02/22-rdf-syntax-ns#"
   xmlns:svg="http://www.w3.org/2000/svg"
   xmlns="http://www.w3.org/2000/svg"
   id="svg8"
   version="1.1"
   viewBox="0 0 38.058777 33.081383"
   height="33.081383mm"
   width="38.058777mm">
  <defs
     id="defs2" />
  <metadata
     id="metadata5">
    <rdf:RDF>
      <cc:Work
         rdf:about="">
        <dc:format>image/svg+xml</dc:format>
        <dc:type
           rdf:resource="http://purl.org/dc/dcmitype/StillImage" />
        <dc:title></dc:title>
      </cc:Work>
    </rdf:RDF>
  </metadata>
  <g
     transform="translate(-0.47196977,-0.32978811)"
     id="layer1">
    <path
       id="path845"
       d="M 5.149299,31.847282 C 3.8270284,30.382012 2.3299564,27.776342 1.4113574,25.341372 -0.07633062,21.397892 0.22739938,15.728298 2.1492404,11.567648 4.353054,6.7965439 8.5435816,2.9985671 13.527621,1.2551481 16.574307,0.18941508 21.09668,0.02325708 24.119386,0.86599208 c 2.733837,0.76219602 4.612241,1.66013502 6.738443,3.22119582 1.94519,1.428161 2.342438,1.828718 4.022778,4.0562717 2.521969,3.3432644 3.650139,6.7259894 3.650139,10.9446424 0,5.00917 -1.642055,9.39863 -4.803974,12.84176 -1.012002,1.102 -1.293981,1.27094 -1.877073,1.12459 -1.055891,-0.26501 -1.286706,-1.41317 -1.239747,-6.16698 0.02278,-2.30556 -0.03722,-4.37052 -0.133313,-4.5888 -0.274066,-0.62253 -10.138055,-7.805212 -10.718904,-7.805212 -0.52072,0 -2.175748,1.082126 -5.058245,3.307292 -0.84829,0.65484 -2.400966,1.78594 -3.450392,2.51354 -1.049426,0.7276 -2.0673974,1.48025 -2.2621584,1.67255 -0.271059,0.26762 -0.354111,1.5283 -0.354111,5.3752 0,2.95829 -0.112667,5.2361 -0.273893,5.53735 -0.173487,0.32417 -0.553317,0.51178 -1.0361326,0.51178 -0.594787,0 -1.072279,-0.34357 -2.173504,-1.56389 z m 0.896163,-7.75264 0.07382,-3.49569 0.887825,-0.5978 c 0.9391716,-0.63238 2.2590416,-1.62074 2.7730476,-2.07654 0.169332,-0.15016 1.4985024,-1.1285 2.9537114,-2.174091 1.455208,-1.045591 2.764895,-1.9992 2.910416,-2.119132 3.225949,-2.658667 4.355912,-3.035125 5.628037,-1.875033 0.39708,0.36211 1.614932,1.301873 2.706338,2.088361 5.688831,4.099485 8.999956,6.644355 9.248027,7.107885 0.152336,0.28464 0.276974,1.71598 0.276974,3.18075 0,4.09157 0.816168,3.40693 1.970166,-1.65266 0.773184,-3.38996 0.386091,-6.27212 -1.325806,-9.871516 C 32.46733,9.0753916 29.238418,6.0156559 25.566157,4.4769479 22.977032,3.3920841 18.615531,3.0684701 15.776574,3.7505829 11.323251,4.8205779 6.7052,8.5626536 4.804552,12.641376 2.9456604,16.630494 2.8212864,21.215972 4.456497,25.473672 c 0.426173,1.10965 1.055062,2.11666 1.321875,2.11666 0.106293,0 0.226481,-1.57306 0.267085,-3.49569 z m 7.497162,8.72849 c -0.258412,-0.36894 -0.411878,-1.16264 -0.411878,-2.13017 0,-1.49138 0.02829,-1.55369 0.859895,-1.89345 0.862165,-0.35225 3.13156,-0.2305 3.837633,0.20587 0.207207,0.12807 0.329555,0.82934 0.329555,1.88896 0,2.21195 -0.304953,2.51683 -2.517438,2.51683 -1.442214,0 -1.745422,-0.085 -2.097767,-0.58804 z m 7.9375,0 c -0.425014,-0.60679 -0.566838,-3.00421 -0.209389,-3.53954 0.617829,-0.92529 3.189167,-1.22125 4.236555,-0.48763 0.501655,0.35137 0.588039,0.65629 0.588039,2.07566 0,2.17052 -0.375708,2.53955 -2.585519,2.53955 -1.371861,0 -1.680424,-0.0894 -2.029686,-0.58804 z m -6.957989,-7.01238 c -0.878821,-0.16109 -1.391389,-1.08671 -1.391389,-2.51262 0,-1.79581 0.590611,-2.32238 2.604826,-2.32238 2.042153,0 2.422257,0.40662 2.422257,2.59121 0,1.31981 -0.09331,1.67344 -0.498839,1.89048 -0.588721,0.31507 -2.296276,0.5074 -3.136855,0.35331 z m 7.233728,-0.36378 c -0.584103,-0.45945 -0.687617,-0.74954 -0.687617,-1.92699 0,-1.98271 0.582048,-2.54423 2.637242,-2.54423 2.067608,0 2.389841,0.33709 2.389841,2.50004 0,1.99884 -0.200848,2.2184 -2.183598,2.38712 -1.200836,0.10219 -1.593486,0.0264 -2.155868,-0.41594 z"
       style="fill:#000000;stroke-width:0.26458332" />
  </g>
</svg>
