<?xml version="1.0" encoding="UTF-8" standalone="no"?>
<!-- Created with Inkscape (http://www.inkscape.org/) -->

<svg
   xmlns:dc="http://purl.org/dc/elements/1.1/"
   xmlns:cc="http://creativecommons.org/ns#"
   xmlns:rdf="http://www.w3.org/1999/02/22-rdf-syntax-ns#"
   xmlns:svg="http://www.w3.org/2000/svg"
   xmlns="http://www.w3.org/2000/svg"
   xmlns:sodipodi="http://sodipodi.sourceforge.net/DTD/sodipodi-0.dtd"
   xmlns:inkscape="http://www.inkscape.org/namespaces/inkscape"
   width="40mm"
   height="40mm"
   viewBox="0 0 40 40"
   version="1.1"
   id="svg8"
   inkscape:version="0.92.4 (5da689c313, 2019-01-14)"
   sodipodi:docname="logo.svg"
   inkscape:export-filename="C:\Users\Mattar\Desktop\listopia\Logo.png"
   inkscape:export-xdpi="96"
   inkscape:export-ydpi="96">
  <defs
     id="defs2" />
  <sodipodi:namedview
     id="base"
     pagecolor="#ffffff"
     bordercolor="#666666"
     borderopacity="1.0"
     inkscape:pageopacity="0.0"
     inkscape:pageshadow="2"
     inkscape:zoom="3.0916667"
     inkscape:cx="48.320374"
     inkscape:cy="35.583276"
     inkscape:document-units="mm"
     inkscape:current-layer="layer1"
     showgrid="false"
     inkscape:window-width="1920"
     inkscape:window-height="1017"
     inkscape:window-x="-8"
     inkscape:window-y="-8"
     inkscape:window-maximized="1"
     inkscape:snap-object-midpoints="false"
     inkscape:snap-center="true"
     fit-margin-top="0"
     fit-margin-left="0"
     fit-margin-right="0"
     fit-margin-bottom="0"
     showguides="true"
     inkscape:guide-bbox="true"
     inkscape:snap-bbox="false"
     inkscape:snap-bbox-edge-midpoints="true" />
  <metadata
     id="metadata5">
    <rdf:RDF>
      <cc:Work
         rdf:about="">
        <dc:format>image/svg+xml</dc:format>
        <dc:type
           rdf:resource="http://purl.org/dc/dcmitype/StillImage" />
        <dc:title></dc:title>
      </cc:Work>
    </rdf:RDF>
  </metadata>
  <g
     inkscape:label="Layer 1"
     inkscape:groupmode="layer"
     id="layer1"
     transform="translate(-1.5744262,4.9704132)">
    <path
       style="fill:#000000;stroke-width:0.27112666"
       d="M 6.8674291,28.237288 C 5.5124583,26.735781 3.9783626,24.06567 3.0370462,21.570482 1.5125658,17.529476 1.8238078,11.719669 3.7931768,7.456124 6.0514924,2.5670265 10.345655,-1.3248761 15.452954,-3.1114112 c 3.122033,-1.0920899 7.756248,-1.2623569 10.853708,-0.3987811 2.801447,0.7810468 4.726305,1.7011924 6.90509,3.30085863 1.993296,1.46348067 2.400368,1.87394417 4.122264,4.15658697 2.58434,3.4259448 3.74041,6.8923267 3.74041,11.2153097 0,5.133052 -1.682665,9.631066 -4.92278,13.159347 -1.037029,1.129254 -1.325982,1.302372 -1.923494,1.152402 -1.082004,-0.271563 -1.318528,-1.448118 -1.270407,-6.319494 0.02334,-2.362578 -0.03814,-4.478606 -0.136611,-4.702285 -0.280844,-0.637926 -10.388776,-7.99824 -10.98399,-7.99824 -0.533598,0 -2.229557,1.108887 -5.18334,3.389084 -0.869268,0.671034 -2.460343,1.830107 -3.535723,2.575701 -1.075379,0.745594 -2.118525,1.516858 -2.318103,1.713914 -0.277762,0.274238 -0.362868,1.566096 -0.362868,5.508133 0,3.031451 -0.115454,5.365593 -0.280666,5.674293 -0.1777779,0.332187 -0.5670017,0.524436 -1.0617581,0.524436 -0.6094966,0 -1.0987968,-0.352067 -2.2272568,-1.602566 z m 0.9183265,-7.944369 0.075648,-3.582141 0.9097808,-0.612584 c 0.9623994,-0.64802 2.3149096,-1.660822 2.8416276,-2.127894 0.173519,-0.153874 1.535562,-1.156409 3.026758,-2.227858 1.491197,-1.07145 2.833274,-2.0486419 2.982394,-2.1715399 3.305729,-2.7244175 4.463636,-3.1101854 5.767223,-1.9214029 0.4069,0.3710639 1.65487,1.3340679 2.773267,2.1400059 5.829521,4.2008689 9.222533,6.8086759 9.476738,7.2836689 0.156104,0.29168 0.283824,1.758417 0.283824,3.259412 0,4.192759 0.836352,3.491187 2.01889,-1.693531 C 38.734211,15.165259 38.337546,12.21182 36.583311,8.5234091 34.861059,4.9022327 31.552293,1.766827 27.789214,0.19006583 25.136058,-0.92162677 20.666694,-1.2532447 17.757527,-0.55426307 13.194071,0.54219363 8.4618115,4.3768144 6.5141588,8.5564051 4.6092957,12.644176 4.4818459,17.343057 6.1574957,21.706054 c 0.4367132,1.137092 1.0811548,2.169007 1.3545661,2.169007 0.1089215,0 0.2320822,-1.611963 0.2736909,-3.582142 z m 7.6825724,8.944352 c -0.264802,-0.378063 -0.422064,-1.191392 -0.422064,-2.18285 0,-1.528263 0.02899,-1.592114 0.88116,-1.940277 0.883488,-0.360961 3.209006,-0.2362 3.932542,0.210962 0.212331,0.131237 0.337705,0.84985 0.337705,1.935676 0,2.266652 -0.312495,2.579072 -2.579697,2.579072 -1.477881,0 -1.788587,-0.0871 -2.149646,-0.602583 z m 8.133801,0 c -0.435525,-0.621795 -0.580857,-3.078506 -0.214567,-3.627075 0.633107,-0.948173 3.268037,-1.251453 4.341327,-0.499689 0.514062,0.360059 0.602582,0.67252 0.602582,2.126992 0,2.224199 -0.384999,2.602355 -2.649461,2.602355 -1.405788,0 -1.721982,-0.09161 -2.079881,-0.602583 z M 16.472063,22.05147 c -0.900555,-0.165074 -1.425799,-1.113585 -1.425799,-2.574759 0,-1.840222 0.605217,-2.379814 2.669246,-2.379814 2.092657,0 2.482161,0.416676 2.482161,2.655292 0,1.35245 -0.09562,1.714826 -0.511176,1.937234 -0.60328,0.322861 -2.353065,0.519948 -3.214432,0.362047 z m 7.412624,-0.372776 c -0.598548,-0.470813 -0.704622,-0.768078 -0.704622,-1.974646 0,-2.031744 0.596442,-2.607151 2.702462,-2.607151 2.118742,0 2.448944,0.345426 2.448944,2.561867 0,2.048274 -0.205815,2.273263 -2.2376,2.446156 -1.230534,0.104717 -1.632894,0.02705 -2.209184,-0.426226 z"
       id="path845"
       inkscape:connector-curvature="0" />
  </g>
</svg>
